<?xml version="1.0" encoding="utf-8"?>
<svg version="1.1" id="Layer_1" xmlns="http://www.w3.org/2000/svg" xmlns:xlink="http://www.w3.org/1999/xlink" x="0px" y="0px"
	 viewBox="0 0 5000 1742.868" enable-background="new 0 0 5000 1742.868" xml:space="preserve">
<path d="M3729.215,1.571c3.735-2.319,8.269-1.34,12.468-1.494c-0.167,0.618-0.502,1.855-0.67,2.473
	c0.747,0.103,2.254,0.322,3.001,0.438c0.695,1.507,1.455,3.027,2.254,4.534c3.568,0.644,8.076,0.412,10.768,3.259
	c3.594,7.922,3.697,16.796,5.809,25.13c1.031,3.323-0.077,6.762-0.683,10.06c-3.014,4.637-9.596,3.594-14.297,5.088
	c-0.921,9.586-13.114,18.587-20.146,30.128c-4.624,5.771-2.408,13.834-0.94,20.403c6.391,17.665-2.465,12.36,27.114,73.316
	c2.267,6.685,5.487,13.061,7.046,19.978c2.421,13.319,9.133,25.362,11.747,38.642c2.353,15.143,14.917,21.468,25.117,52.128
	c1.014,1.844,11.377,32.881,16.59,55.502c2.756,6.749,2.898,15.598,9.995,19.591c3.942,1.662,3.285,6.621,6.415,9.042
	c15.513,13.235,17.865,12.745,21.498,12.996c2.306-6.827-0.129-13.808,0.296-20.776c-0.712-9.182,4.092-18.812,7.922-38.526
	c3.357-20.27,30.913-36.231,45.082-34.855c7.287,0.744,11.976-6.445,29.883-0.464c5.423,0.631,9.442,4.817,14.697,6.08
	c23.472,8.874,33.222,58.161,32.678,67.79c0.518,32.36-4.191,27.233-6.943,36.207c24.125-16.063,13.247-12.5,29.548-14.748
	c2.872-2.293,4.276-6.144,7.844-7.69c4.109-1.739,5.474-6.852,9.944-8.076c7.355-1.986,17.074-30.353,36.774-57.254
	c4.302-6.028,11.18-9.39,16.268-14.671c6.788-7.535,8.578-17.852,13.408-26.521c25.521-43.902,46.68-60.922,55.064-74.991
	c0.368-0.548,19.025-32.485,19.025-32.485c12.129-21.6,8.557-13.586,5.294-25.967c-11.752-31.947,6.765-41.611,13.73-50.646
	c6.659-0.129,13.331-0.103,20.029-0.077c-0.193,0.631-0.592,1.919-0.799,2.563c1.456,0.052,2.976,0.09,4.547,0.155
	c0.85,2.937,1.366,6.08,2.976,8.759c12.877,10.536,4.18,8.489,15.263,14.877c2.859,50.37-8.851,43.787-21.266,71.951
	c-3.077,7.884-28.127,62.599-43.008,89.752c0,0-40.619,57.076-42.661,59.07c-2.937,2.203-2.151,6.208-3.825,9.107
	c-17.461,29.522-18.928,38.038-32.948,66.206c-1.778,3.632-4.946,6.363-6.659,9.982c-9.404,26.09-29.486,25.195-42.094,59.663
	c-2.782,17.054-2.808,34.481-6.659,51.381c-2.646,9.194,2.552,32.009-2.435,40.046c-3.323,5.603-4.173,12.365-8.166,17.582
	c-1.739,2.215-3.066,4.74-2.666,7.638c0.412,15.032-9.364,29.059-5.59,44.18c0.412,7.368,3.362,14.787,1.237,22.129
	c-0.515,3.266-6.94,20.83-1.365,30.9c1.842,4.379,4.933,8.604,4.495,13.602c-0.039,4.019-3.349,7.368-2.666,11.477
	c0.644,5.126,4.83,8.72,6.711,13.331c0.271,2.821,0.554,5.655,1.069,8.463c-11.762,9.896-20.405-1.439-28.054,4.431
	c-2.911,2.061-6.273,3.323-9.377,4.959c-0.528,10.163,1.52,20.519,6.453,29.471c1.919,3.401,0.863,7.471,1.816,11.142
	c1.108,3.748,3.478,6.981,4.688,10.717c1.43,4.753,6.286,6.93,10.395,8.965c36.296,26.276,23.245,27.698,25.761,46.216
	c2.817,5.366,60.134,71.549,80.53,130.867c1.455,4.044,1.004,9.119,4.637,12.095c4.058,4.637,9.673,7.419,14.246,11.49
	c17.528,20.796,3.341,11.376,22.657,41.72c1.868,3.027,1.61,7.226,4.546,9.661c4.109,4.792,11.838,2.434,15.998,7.213
	c2.319,2.383,5.809,3.954,6.801,7.406c1.378,3.478,3.426,6.672,5.719,9.648c9.673,5.783,15.495,15.856,21.085,25.323
	c2.447,4.341,7.097,6.956,9.016,11.67c2.151,5.294,7.986,7.625,10.369,12.726c3.271,5.899,7.78,11.013,12.468,15.843
	c3.375,3.247,16.857,22.647,27.011,32.279c3.439,3.272,4.534,8.115,7.394,11.837c16.761,21.986,8.112,13.653,7.213,27.358
	c1.683,3.346,11.966,17.655,16.796,17.054c3.4,0.026,5.989-2.692,9.222-3.529c5.913,0.708,10.434,5.41,16.346,6.221
	c5.114,0.979,8.282,6.028,13.357,7.213c4.56,1.005,8.952,2.821,13.718,3.091c4.057,0.219,6.156,5.423,10.472,4.895
	c2.988,0.245,6.375-0.528,9.094,1.275c7.354,4.146,62.013,0.728,72.105,6.814c1.711,19.579-15.264,27.163-29.368,43.781
	c-24.613,21.211-40.09,5.567-68.036,23.43c-17.985,12.145-48.769,20.372-67.494,5.642c-0.116-4.547,0.361-9.158-0.412-13.654
	c-5.088-10.33-8.514-21.51-15.276-30.965c-9.757-26.753-3.626-12.286-18.883-31.313c-4.289-5.229-11.077-7.922-14.323-14.04
	c-2.383-4.508-6.389-7.896-11.219-9.428c-5.32-3.542-8.862-9.493-14.813-12.172c-2.873-1.288-5.59-3.001-7.213-5.719
	c-5.861-8.385-17.17-9.867-23.662-17.518c-6.428-9.055-17.157-13.705-24.035-22.361c-79.779-92.615-159.33-156.04-166.25-160.956
	c-13.79-9.648-46.513-50.261-79.241-59.817c-65.156-28.374-274.964,240.649-316.076,298.597c-8.937,12.7-6.795,24.47-17.286,26.766
	c-8.45,1.842-16.59-2.164-24.924-2.64c-2.112,5.036-5.641,9.3-9.313,13.267c-4.998,4.792-7.355,11.477-11.889,16.642
	c0.296,4.65,3.581,10.755-0.94,14.31c-5.307,4.482-8.372,10.742-11.863,16.577c-2.216,3.877-6.943,6.582-6.814,11.49
	c-0.593,2.859,0.425,6.968-2.808,8.501c-22.348,10.639-20.723-3.155-57.705-31.416c-6.543-5.165-14.491-8.488-20.094-14.774
	c-3.065-3.465-6.981-5.925-10.601-8.669c-4.74-3.478-5.616-9.764-8.862-14.323c-3.285-3.606-6.402-7.368-9.596-11.026
	c-2.447-7.277-5.771-14.194-8.695-21.279c11.03-15.55,43.58,10.564,49.629,7.265c4.611-2.808,10.202-1.288,15.135-3.078
	c10.68-4.551,10.565,3.737,35.654-9.39c6.131-2.293,12.43-5.642,19.153-3.941c14.001-10.828,6.134-18.152,20.222-37.817
	c0,0,13.024-29.269,23.868-45.675c6.801-13.035,13.113-26.341,19.811-39.44c3.542-6.917,10.111-11.734,13.318-18.857
	c3.621-7.656,15.17-27.468,23.662-27.796c2.847,0.245,5.642,1.198,8.578,1.134c2.95-3.967,1.005-9.583,3.001-14.066
	c1.623-7.239,10.51-8.475,13.499-14.8c2.55-4.663,5.886-8.797,9.158-12.958c2.876-26.579,13.876-34.454,15.044-37.637
	c4.607-8.094,14.84-48.978,47.31-95.677c33.166-39.22,34.032-39.189,35.937-46.525c-1.921-10.88-7.187-10.2,6.427-27.075
	c4.019-2.756,8.115-5.474,11.399-9.184c2.641-3.503,9.235-4.354,8.012-9.892c-1.34-10.24,6.994-17.814,8.681-27.436
	c0.953-5.951,7.265-9.223,7.999-15.225c0.67-5.242,3.568-9.802,6.698-13.937c3.774-5.229,1.688-11.94,2.795-17.865
	c0.811-3.787,1.018-7.651,0.773-11.502c-6.672-0.992-13.434-2.55-20.158-1.34c-3.813,0.747-7.703,1.391-11.528,0.773
	c-3.349-3.066-1.765-8.746,0.077-12.352c3.645-5.822-1.713-12.146-1.507-18.123c3.813-13.95,4.045-28.994,10.704-42.081
	c1.752-7.909,4.753-15.688,4.508-23.906c-0.361-6.17,2.885-11.85,2.576-18.02c-0.883-11.471,8.454-13.987,4.057-40.033
	c-0.528-7.278,0.425-14.671-1.481-21.82c-10.446-45.579,2.202-39.429-3.632-72.247c-0.683-8.553-0.747-17.389,2.473-25.491
	c0.593-2.937,3.259-6.234,1.121-9.068c-10.15-14.645-10.369-34.636-23.365-47.529c-3.838-4.521-2.641-11.052-1.816-16.41
	c3.313-11.944-13.599-80.405-16.32-91.645c-4.591-29.058-18.034-41.69-20.429-54.42c-9.173-32.325-16.422-54.187-24.331-104.384
	c-4.053-26.271-13.137-43.782-11.58-63.128c0.811-4.457-3.735-6.505-6.015-9.493c-2.435-5.77-2.602-12.146-3.658-18.239
	c-2.78-16.065-0.89-17.551,13.408-20.068c3.903,0.052,5.165-4.225,7.522-6.569c4.672-6.322,16.322-4.871,28.376-10.279
	C3720.031,1.584,3725.093,3.838,3729.215,1.571z"/>
<path d="M3190.858,100.829c5.384-0.889,10.524-3.272,16.101-2.898c4.789,14.516,16.743,13.656,7.458,25.233
	c-0.927,3.916-1.185,7.973-2.241,11.876c-4.315,1.623-9.325,0.644-13.833,1.765c-1.301,5.281,1.958,10.073,3.13,15.045
	c5.178,0.67,10.395,0.593,15.624,0.232c-0.077-0.721-0.232-2.138-0.309-2.847c20.51,0.191,3.094,18.954,14.22,32.008
	c2.705,3.027,2.19,7.355,3.233,11.052c0.965,8.078,11.934,14.147-5.99,24.808c0.644,2.537,1.121,5.126,1.584,7.728
	c4.096,2.306,9.545,4.367,9.828,9.867c-0.502,7.059,2.86,14.323-0.734,20.995c-1.546,7.741-11,7.728-17.17,7.046
	c-6.26-2.615-11.902-8.025-19.089-7.548c-3.181,2.306-6.376,5.062-7.587,8.926c2.074,2.859,3.968,6.389,3.182,10.06
	c-1.868,5.023-4.096,10.279-8.682,13.396c-3.207,6.621-9.171,11.979-9.957,19.617c-0.756,5.01-15.505,33.53-19.36,39.943
	c-5.538,6.775-5.461,16.126-10.072,23.43c-4.457,5.68-3.825,13.434-7.432,19.591c-2.512,6.234-7.767,10.897-9.686,17.376
	c-3.941,9.274-11.451,16.59-15.212,25.929c-1.25,6.311-5.539,11.348-9.905,15.817c-3.485,2.873-63.522,81.096-64.699,88.76
	c-0.696,0.245-2.087,0.721-2.782,0.966c-1.7,9.519-12.816,15.032-12.288,25.194c-1.159,9.48-2.331,18.96-3.555,28.44
	c-0.902,9.506,1.468,19.398-2.087,28.543c-0.103,1.29-5.311,67.643-6.891,75.841c-0.234,5.518-6.175,32.346-5.294,52.785
	c0.361,9.493-4.65,17.956-6.286,27.088c0.116,6.118,3.826,12.211,1.507,18.278c-0.747,2.576-1.932,4.998-2.692,7.561
	c0.605,5.783,3.401,11.502,1.881,17.402c-1.301,5.474-2.525,11-2.357,16.68c-2.538,1.455-5.075,2.911-7.316,4.766
	c0.335,3.066,3.259,5.384,3.723,8.566c2.112,5.706-0.026,12.185,2.847,17.672c2.499,2.679,5.899,4.405,8.14,7.393
	c11.804,15.509,15.957,4.3,24.589,10.188c5.217,3.091,8.385,10.266,5.062,15.805c-1.056,2.937-4.534,5.603-3.092,8.965
	c11,14.014,29.651,21.163,36.941,38.127c7.381,11.992,19.051,20.493,27.603,31.57c39.178,46.724,37.187,63.511,59.328,82.436
	c17.785,5.066,10.584,0.033,27.217,11.425c11.837,5.461,24.331,10.91,33.155,20.892c1.835,2.016,31.908,26.883,44.502,43.06
	c6.543,6.814,11.966,14.645,18.703,21.279c10.343,8.875,21.845,16.667,30.218,27.59c3.581,4.611,8.978,7.458,12.198,12.391
	c4.083,5.397,7.213,11.502,11.683,16.642c5.168,5.078,19.187,18.446,16.577,25.156c-6.387,18.009-16.371,16.984-10.201,27.771
	c2.896,6.51,19.177,18.638,20.467,19.463c3.98,2.525,9.274,2.924,12.365,6.827c3.491,4.045,8.811,5.693,12.79,9.184
	c18.802,17.115,13.287,24.813,22.013,35.911c5.34,9.014,31.467,22.148,26.199,44.966c-1.751,11.271-5.912,22.76-14.619,30.54
	c-42.43,37.479-42.292,5.019-56.507-17.672c-5.203-7.6-6.53-17.002-11.103-24.898c-1.778-2.834-1.713-6.234-1.971-9.403
	c-4.083-2.486-4.109-7.767-7.316-10.936c-4.38-5.539-10.872-9.119-14.092-15.534c-2.692-1.803-6.44-1.455-9.441-2.615
	c0.399-2.975,1.082-5.886,1.803-8.797c-10.536-5.68-9.738-18.909-12.713-28.891c-2.602-2.035-5.539,0.76-8.038,1.597
	c-3.581-2.344-6.376-5.616-9.686-8.256c-26.14-17.483-105.37-96.299-119.88-103.122c-36.512-19.379-124.979-114.506-236.732-157.285
	c-61.16-19.769-78.937-8.986-208.627,104.964c-54.05,54.235-52.247,61.254-62.896,65.949c-9.467,13.099-21.085,24.409-31.403,36.838
	c-3.027,3.504-4.611,8.089-8.231,11.116c0,0-72.18,79.779-72.182,79.782c-3.066,3.401-7.097,5.783-9.905,9.429
	c-14.781,16.923-19.27,9.119-25.388,4.676c-3.645-0.657-6.08,3.143-8.836,4.92c-3.697,5.964-2.048,14.491-7.084,19.913
	c-3.735,2.538-8.553,2.988-12.095,5.925c3.465,6.711-1.507,13.074-4.057,19.102c-4.575,12.065-11.969,5.768-24.203,50.556
	c-1.301,5.101-4.508,9.39-6.312,14.297c-0.502,1.288-7.332,28.137-19.926,30.359c-18.912,5.425-74.634-41.963-35.306-77.876
	c28.926-27.681,7.677-27.72,45.172-61.749c3.271-2.86,8.012-3.697,10.652-7.355c4.766-4.714,8.707-10.176,13.641-14.735
	c3.207-3.413,3.787-10.034-0.541-12.765c-4.637-3.606-10.369-7.613-10.279-14.169c15.191-6.855,9.654-6.703,16.333-16.461
	c19.252-27.339,19.693-26.18,35.035-38.384c7.502-23.597,48.991-70.894,50.273-72.221c27.945-33.683,48.814-39.185,57.061-54.82
	c2.035-4.663,8.192-4.74,11.052-8.308c1.997-7.883,4.83-16.925,12.7-20.789c11.192-5.805,9.17-14.441,11.786-21.639
	c1.494-3.903,6.53-4.882,7.934-8.888c2.666-4.482,0.953-9.841,2.048-14.671c2.833-5.127,7.277-9.132,10.588-13.937
	c3.862-14.675,4.131-9.572,10.163-18.149c5.41-6.679,33.228-57.165,34.559-62.084c1.288-4.972,3.941-9.403,7.612-12.996
	c3.388-3.362,1.752-8.411,2.821-12.584c2.125-6.273,7.381-11.425,13.756-13.318c1.455-0.554,3.4-0.811,3.993-2.576
	c3.826-9.493,8.321-18.741,11.207-28.595c0.695-3.555,4.237-5.371,5.487-8.63c7.354-16.68,10.689-11.869,12.674-26.83
	c-3.916-3.903-10.163-2.95-14.452-6.363c-10.292,5.182-13.79,2.905-12.224-18.239c2.95-6.234,1.958-13.164,3.079-19.772
	c0.012-5.281-2.576-10.15-3.195-15.341c-0.567-9.712-2.37-19.334-4.856-28.737c-8.718-30.808,0.083-40.643-8.347-65.047
	c-6.793-21.402-3.405-63.405-4.714-71.023c5.631-61.231,6.545-67.106-7.819-82.693c-19.614-16.995-27.012-33.509-38.036-44.348
	c-10.092-12.794-22.984-23.642-25.259-28.788c-5.242-12.251-17.279-26.7-20.133-27.835c-5.39-19.971-33.021-59.041-36.864-80.13
	c-3.632-9.248-8.772-17.852-12.906-26.882c-0.001-0.002-8.746-27.448-8.746-27.448c-3.478-6.737-9.428-12.765-10.034-20.596
	c1.571-6.015-1.932-11.502-3.941-16.912c-15.282-12.159-3.633-28.68-5.384-36.8c-4.985-3.349-7.239-9.132-8.746-14.697
	c0.116-2.718,2.551-4.856,2.422-7.651c0.026-3.413-0.966-6.737-1.134-10.124c2.667-5.384,6.788-9.905,9.789-15.109
	c19.576-8.643,22.278-0.54,30.772,3.864c5.114,3.761,12.623,6.633,13.28,13.885c0.979,12.34-6.479,23.056-8.54,34.868
	c-0.567,6.749,2.576,13.074,4.392,19.411c1.519,6.407,8.038,3.959,12.932,16.693c1.61,5.333,5.036,9.867,6.93,15.096
	c1.752,4.804,6.543,7.278,10.601,9.892c3.817,2.894,21.77,34.789,24.409,39.981c0.007,0.017,16.095,20.603,18.896,24.911
	c4.289,4.869,6.427,11.27,11.245,15.753c4.56,4.032,6.118,10.201,9.377,15.173c2.55,1.623,5.616,2.821,7.11,5.693
	c3.709,6.311,8.334,12.314,14.516,16.41c4.882,3.272,7.664,8.939,13.19,11.386c7.651,5.848,12.752,14.478,16.732,23.146
	c1.417,3.929,5.371,5.783,8.475,8.218c5.178,3.568,7.355,9.776,11.528,14.31c5.436,2.847,12.623,3.491,17.904-0.116
	c4.289-2.628,9.171-3.993,13.821-5.899c-1.919-8.862-1.61-17.904-1.481-26.895c0.727-16.949-9.583-7.982,5.771-41.81
	c4.199-5.59,8.694-11,12.301-17.041c1.12,0.232,2.293,0.464,3.49,0.696c8.348-12.796,35.737-12.245,51.767-10.008
	c19.736,3.918,31.344,27.107,36.182,33.386c5.925,7.252,4.701,17.53,9.39,25.349c6.311,6.118,14.117,10.858,19.038,18.342
	c3.967,6.621,9.287,12.288,14.452,17.994c10.19-0.722,8.476-0.236,26.444,13.331c4.946-3.388,9.982-6.672,15.109-9.815
	c3.259-1.984,3.8-6.311,6.801-8.604c3.942-2.962,6.479-7.265,9.841-10.82c3.001-3.014,6.569-5.41,9.609-8.385
	c1.571-3.182,1.443-6.878,2.718-10.176c2.499-8.475,11.386-12.133,18.136-16.655c2.28-3.053,2.834-7.149,5.139-10.266
	c2.666-3.748,2.318-9.004,5.822-12.224c2.692-3.143,6.724-4.444,10.124-6.634c3.284-5.938,6.363-12.262,12.224-16.126
	c4.957-11.274,22.117-35.048,22.927-36.336c5.823-8.499-1.022-6.633,15.237-19.553c3.462-5.354,4.849-20.25,15.637-29.419
	c14.998-5.017,10.609-17.538,26.972-33.58c3.735-3.297,3.761-8.759,6.595-12.674c2.241-4.457,6.659-7.638,7.908-12.597
	c0.219-2.19,2.229-3.246,3.748-4.56c0.219-12.275,0.18-24.576-0.103-36.851c-0.399-6.852,7.586-9.364,10.575-14.336
	c-0.901-7.806-5.165-14.877-5.5-22.799c-1.932-0.142-3.825-0.271-5.68-0.412c-8.711-12.658-9.538-11.82-0.76-29.638
	c2.306-1.842,5.384-2.293,8.025-3.632C3185.436,106.69,3186.44,101.28,3190.858,100.829 M3228.328,229.3
	c0.142,1.275,0.348,2.563,0.618,3.851c-4.264,3.259-9.287,4.727-14.62,4.083c-1.288,1.945-3.851,3.555-3.104,6.208
	c0.825,7.883,7.78,14.272,15.431,15.56c2.628-1.056,5.075-2.641,7.381-4.341C3236.381,251.082,3238.809,235.963,3228.328,229.3z"/>
<path d="M4398.979,289.645c-2.074-6.028,3.993-12.03,9.867-11.309c3.375,1.404,5.693,4.263,7.471,7.381
	c3.748,0.992,5.822-4.534,9.519-4.908c2.744,1.752,6.556,3.285,7.355,6.84c2.1,8.141,5.461,15.946,6.788,24.293
	c0.914,6.505-1.829,12.662-2.692,19.012c-1.971,8.939-0.825,18.149-1.043,27.23c0.592,8.102-2.911,16.126-0.644,24.164
	c1.713,5.861,1.868,12.224,5.319,17.492c3.401,5.539,4.006,12.43,8.205,17.53c2.705,3.375,3.414,7.767,5.165,11.657
	c1.958,5.358,7.664,8.205,9.274,13.834c2.855,11.079,45.662,69.578,52.463,84.059c5.513,11.834,27.967,34.816,32.845,44.502
	c6.621,6.84,12.25,14.619,17.105,22.824c2.859,4.083,3.709,9.544,8.05,12.533c5.616,4.469,8.591,11.129,13.048,16.603
	c2.679,3.993,7.986,4.637,11.284,8.012c6.904,7.136,15.882,11.631,23.713,17.621c3.581,0.605,7.277,0.193,10.961,0.271
	c5.049-5.294,3.465-13.099,1.61-19.398c-1.919-5.088,0.271-10.691-2.435-15.521c-3.284-7.2-1.456-15.199-1.172-22.76
	c6.147-25.564,5.665-29.211,22.875-41.437c11.67-15.802,48.96-27.43,74.54-15.392c18.973,8.152,0.574-5.788,30.591,20.97
	c15.687,17.21,18.86,37.796,14.168,54.395c-2.074,6.827,0.76,13.963-1.017,20.841c-0.915,5.912-4.92,10.91-5.049,16.951
	c-0.31,4.044-2.525,7.638-2.808,11.708c3.259-0.013,6.569-0.219,9.866-0.683c3.8-0.554,7.806,1.726,11.503-0.18
	c5.139-1.752,9.158-5.526,13.949-8.012c29.441-12.993,24.623-27.786,37.264-42.557c3.246-4.856,8.308-8.231,11.064-13.434
	c4.786-8.675,14.92-10.28,30.733-43.923c2.19-7.174,7.78-12.726,9.609-20.029c9.637-37.367,13.659-42.542,14.156-57.988
	c-0.064-6.956,3.748-13.061,4.625-19.849c1.262-9.119,2.563-18.252,3.555-27.397c8.766-22.403,5.983-19.802,4.302-36.31
	c-5.265-39.323,0.007-38.002-0.85-51.703c0.296-7.445-1.494-15.405,2.125-22.309c4.604-8.424-0.916-4.935,11.258-23.971
	c2.641-0.052,5.333-0.077,8.063-0.103c0.708,1.881,1.456,3.761,2.306,5.642c5.539-2.95,7.458-9.828,13.293-12.468
	c3.439-2.666,6.363,2.396,8.72,4.508c0.348,3.542-0.464,7.071-0.592,10.614c3.387-1.996,4.418-6.505,7.857-8.398
	c3.581,0.567,7.947,2.138,9.712,5.603c-1.537,18.49-5.712,7.952-6.26,21.691c3.594-0.502,7.445-2.267,11.104-1.043
	c12.506,12.807-8.453,21.358-7.033,46.048c0.769,8.95-0.263,34.319-3.89,42.48c-2.409,5.886-7.252,10.343-9.519,16.307
	c-2.099,4.148,0.889,8.63,0.232,12.945c-6.971,29.116,5.536,33.163-13.499,108.905c-0.788,5-8.224,45.798-10.008,48.032
	c-5.208,7.07-11.726,26.898-14.761,30.321c-6.367,7.926-37.812,56.036-42.416,65.755c-4.238,3.838-6.724,8.875-9.415,13.782
	c-8.953,7.741-12.971,19.398-21.395,27.564c-11.463,10.158-15.084,47.658-15.341,48.946c-1.395,12.419-14.812,58.676-17.066,61.299
	c-3.156,7.728-3.104,16.32-5.655,24.241c-7.338,22.774-7.108,32.547-3.607,53.429c0.734,5.281-1.172,10.42-1.919,15.598
	c-1.468,7.123,1.275,15.057-3.233,21.407c-4.006,5.487-1.121,11.966-0.966,18.071c-0.064,2.795,2.538,4.47,3.736,6.801
	c0.206,4.534-2.95,8.063-5.178,11.657c0.116,6.414,1.404,12.829,3.246,18.986c-0.129,1.687-0.554,3.336-0.747,5.023
	c3.362,4.586,5.642,9.879,6.71,15.482c1.108,6.028,6.75,10.498,6.208,16.912c-0.155,6.453,4.096,11.915,4.766,18.29
	c0.168,6.35,4.264,11.49,5.771,17.505c16.069,57.314,31.819,92.623,38.925,151.746c2.203,8.965,6.105,17.453,8.205,26.47
	c-0.902,7.509-0.193,15.457,3.684,22.129c7.844,14.851,6.994,32.781,15.792,47.233c2.344,4.792,6.183,8.72,8.334,13.653
	c2.692,6.466,8.888,10.845,10.64,17.814c20.024,33.776,30.521,79.612,39.144,97.3c3.299,5.267-3.805,22.595,2.357,29.883
	c4.199,5.423,4.186,12.61,5.319,19.089c1.043,5.616-2.177,11.296,0.013,16.745c1.545,4.856,6.827,7.728,7.728,12.932
	c4.771,23.607,7.641,8.064,3.864,28.299c-2.653,0.039-5.242,0.09-7.78,0.116c0.026,1.571,0.142,3.156,0.309,4.766
	c3.233,0.515,6.711,0.876,9.132,3.439c-1.623,1.031-3.104,2.151-4.598,3.207c2.563,6.608,4.792,13.422,5.745,20.493
	c1.506,9.798,13.374,32.81,12.688,45.185c-0.928,13.422,5.68,25.645,9.66,38.075c2.857,9.374,5.9,7.605,2.859,32.536
	c-1.893,5.719-5.255,10.871-8.475,15.907c-17.687,8.486-4.36,4.899-20.841,6.286c-3.594-0.296-6.054,2.782-9.209,3.826
	c-2.563,0.013-4.985-0.76-7.419-0.966c-3.749,0.631-7.045,3.529-10.91,2.847c-4.47-0.644-8.965-0.67-13.422-0.67
	c-2.434-2.808-5.577-4.998-7.703-7.947c-6.441-28.21-7.045-47.736-8.127-76.884c-0.348-5.41-3.89-10.085-3.684-15.534
	c-0.193-2.95,0.36-6.221-1.752-8.578c-2.73-2.949-1.649-7.303-3.684-10.511c-9.987-18.849-13.097-33.867-12.481-38.423
	c3.143-4.959,9.892-3.98,13.602-8.037c-2.37-3.581-7.689-3.813-10.587-0.85c-2.976,3.388-7.69,1.353-10.652-0.876
	c-3.349-2.319,0.18-6.312,0.515-9.3c1.468-13.653-0.309-27.564-4.263-40.703c0.927-4.856,5.229-8.733,4.843-13.834
	c-16.479-25.329,1.627-0.708-18.78-31.751c-11.874-18.968-7.438-20.19-14.143-34.778c-3.001-8.05-8.308-15.225-9.699-23.842
	c-0.605-4.264-3.787-7.368-5.835-10.923c-3.285-5.229-3.774-11.85-7.87-16.59c-29.148-33.127-42.314-88.434-60.783-114.379
	c-5.277-7.186-11.251-28.324-23.584-45.984c-15.672-21.585-43.176-71.682-65.652-42.931c-4.264,5.513-10.665,9.274-13.705,15.727
	c-2.55,5.59-4.276,11.657-7.909,16.68c-2.666,2.164-5.358,4.405-6.698,7.651c-0.617,1.29-21.015,41.289-25.04,52.141
	c-6.27,15.026-19.089,60.621-18.999,67.353c0.348,4.289-3.452,7.278-3.98,11.399c-1.056,5.242-5.809,8.785-6.427,14.169
	c-2.949,9.015,1.076,7.196-8.309,16.397c-0.154,2.731-0.257,5.461-0.322,8.218c-2.937,3.439-9.068,6.247-7.239,11.644
	c1.545,5.41-1.391,10.704-3.001,15.766c-4.164,7.401-9.568,36.212-13.937,45.146c-2.125,4.354-2.344,9.338-1.855,14.078
	c-0.477,4.315-1.082,8.63-0.875,12.997c0.013,13.756-6.505,26.225-9.48,39.389c-1.296,4.432,5.243,20.333-0.296,29.355
	c-1.764,4.469-6.865,6.092-9.544,9.673c2.01,3.684,5.346,7.136,5.126,11.644c-0.172,3.65,4.357,54.833,1.739,59.714
	c-16.896,29.287-17.217,8.003-19.694,36.851c0.45,7.806-1.366,15.457-1.263,23.262c0.264,22.185-12.791,27.135-18.677,32.91
	c-2.808,2.808-6.93,1.829-10.343,1.211c-4.573-1.365-9.3,2.074-13.628-0.567c-4.264-2.628-8.965,1.185-13.292-0.824
	c-5.719-2.19-12.507-2.95-16.655-7.883c-5.371-5.577-4.676-13.872-5.693-20.97c1.275-6.556,0.013-13.576,3.13-19.707
	c3.079-5.925,1.675-13.28,5.758-18.728c6.306-10.227,24.331-41.574,17.466-51.458c-4.29-6.672-5.062-14.709-7.522-22.064
	c-1.997-5.629-6.608-9.686-9.97-14.426c0.412-1.288,0.889-2.55,1.417-3.787c3.246-0.026,6.543,0.309,9.764,1.108
	c6.767-5.694,2.979-4.39,14.632-5.294c-1.494-5.268-6.183-8.308-9.493-12.288c-10.169-14.958-11.725-35.979,4.109-56.842
	c6.151-6.823-0.295-19.504,2.332-30.978c0,0,6.9-39.171,9.003-52.913c0.309-13.448,4.392-26.431,8.759-39.028
	c1.636-4.405,1.095-9.403,3.143-13.628c6.749-9.493,9.609-21.511,9.068-33.077c6.464-6.971,4.565,0.039,11.18-27.68
	c-0.399-5.951-2.847-11.863-1.134-17.827c2.873-13.666,5.461-27.41,7.355-41.218c-2.667-22.027,4.008-27.608,4.792-40.922
	c3.117-11.386,4.547-23.327,9.66-34.069c-0.773-7.728,2.795-14.929,3.233-22.593c0.917-2.369,7.991-27.138,5.255-38.178
	c-4.729-25.377,13.429-42.063,12.353-53.596c-0.915-5.99,3.658-10.678,4.212-16.448c0.915-7.535,7.406-12.958,7.818-20.583
	c1.327-6.737,4.379-13.486,3.156-20.467c-1.842-2.705-8.398-0.914-7.483-5.59c7.443-18.923-0.823-23.368-2.525-28.608
	c-0.657-5.5,2.435-10.459,3.414-15.74c1.481-4.56-1.559-8.746-2.873-12.906c-2.494-9.904,3.648-45.726,3.362-50.994
	c0.129-4.573-2.061-9.029-0.875-13.589c3.711-30.314,3.149-44.825-2.718-70.392c-9.679-121.705-13.377-84.68-77.554-195.553
	c-30.369-48.443-6.234,0.302-48.65-90.422c-4.948-11.377-8.14-13.343-18.87-39.17c-2.344-4.689-3.375-9.944-6.26-14.349
	c-3.98-6.221-5.449-13.563-7.87-20.429c-1.958-6.827-8.282-11.142-11.116-17.492c-1.224-4.418,1.803-7.973,3.735-11.605
	c0.554-3.323-1.971-6.183-3.67-8.772c-5.373-7.978-10.533-6.444-18.059-34.842c-2.615-6.917-0.67-14.388-1.597-21.523
	c-2.474-14.027-18.562-19.566-22.928-32.691c-1.275-4.289,4.457-8.282,8.012-5.32c6.397,2.991,18.904,20.791,24.975,19.566
	c10.647-5.518-14.841-40.232-11.734-45.456c0.489-3.143,3.594-4.482,6.08-5.886c8.302-1.334,14.121,18.988,21.601,23.739
	C4404.865,300.8,4401.207,295.326,4398.979,289.645 M4463.098,1586.873c0.245,4.019,3.633,6.389,6.878,8.153
	c-0.064-2.486,1.057-5.41-0.76-7.484C4467.207,1586.809,4465.069,1586.963,4463.098,1586.873z"/>
<path d="M1370.563,291.191c6.891,0.554,13.744-1.739,20.557,0.052c2.808-0.18,3.851,2.795,5.191,4.74
	c10.585,0.04,8.271,9.751,9.725,16.629c2.367,9.873-6.672,18.589-15.882,20.351c-5.049,19.122-7.648,18.952-7.677,27.474
	c4.586,3.645,9.493,6.968,13.705,11.103c0.541,5.217-4.122,9.171-6.582,13.37c-6.324,7.522-10.91,16.358-17.801,23.404
	c-12.087,13.557,0.369,2.507-34.894,57.834c-12.153,22.164-24.172,34.186-36.954,67.378c-21.205,44.911-21.835,40.579-30.012,60.178
	c-14.211,18.783-9.746,25.343-40.677,54.652c-3.658,4.74-4.92,10.974-9.145,15.367c-5.771,6.163-0.106,14.933-3.671,32.292
	c-1.194,6.098,4.295,32.878,4.701,37.006c1.388,36.913-9.488,88.931-11.09,94.402c-0.605,6.651,5.083,13.952,1.133,36.993
	c-1.388,39.811,2.961,58.066-6.891,68.087c-3.388,4.753-9.751,6.788-12.636,11.734c1.481,4.843,3.813,9.442,4.714,14.478
	c0.683,5.397,3.864,9.944,5.719,14.967c1.172,3.31,4.598,4.856,7.097,7.046c5.706,4.585,9.441,11.232,15.766,15.135
	c7.496,4.637,15.856,9.673,19.012,18.432c1.211,6.634,0.837,13.795-2.241,19.926c-10.038,19.467,7.034,31.577,12.507,49.629
	c2.049,6.807,14.31,35.204,14.748,39.337c0.631,4.959,4.367,8.617,6.582,12.906c1.636,2.344,0.309,5.242,0.322,7.857
	c1.881,12.456,7.226,24.074,9.339,36.491c2.099,9.21,8.63,17.827,6.479,27.616c-2.499,10.222-1.658,4.141,4.792,24.061
	c11.206,14.182,15.276,32.369,24.447,47.774c20.68,15.588,15.974,32.221,34.61,54.214c18.073,19.793,10.495,35.347,54.073,77.361
	c14.989,13.644,25.679,46.522,26.701,51.986c0.515,2.821-1.494,5.152-2.705,7.497c-4.972-0.773-9.557,1.906-14.516,1.79
	c2.37,4.779,5.835,8.887,8.437,13.55c2.306,4.624,8.398,5.088,11.013,9.596c5.152,9.699,9.982,20.635,19.797,26.56
	c5.474,4.92,11.039,9.867,17.685,13.215c7.612,3.658,12.417,10.884,18.909,16.049c0.799,3.31,2.254,6.84,1.623,10.279
	c-8.441,11.578-48.809,30.782-65.408,19.875c-4.663-2.525-7.831-7.136-12.803-9.12c-4.495-2.46-9.673-0.811-14.388-0.142
	c-11.734,0.76-23.803,0.425-35.061-3.22c-0.001-0.001-13.138-60.1-13.138-60.101c-2.666-1.069-6.08-1.43-7.587-4.161
	c-12.31-18.447-8.185-33.071-16.487-40.187c-93.295-79.532-10.82-18.98-225.049-322.336c-7.232-9.149-20.913-28.799-27.809-19.991
	c-1.976,2.573-29.025,30.75-32.047,34.881c-55.788,76.489-147.264,243.095-147.264,243.095c-3.568,4.482-5.642,9.841-8.218,14.903
	c-34.191,63.363-34.62,57.286-59.405,82.32c-3.362,3.516-7.6,6.492-9.635,11.051c-2.168,12.955,3.266,13.912-4.753,27.526
	c-5.796,2.383-11.799-1.262-17.505-2.318c0.753,41.024,3.081,38.662,0.863,58.89c-8.128,18.232-25.756,19.274-27.899,19.913
	c5.866,52.137-74.328,35.862-76.485,24.203c0.193-5.861,0.915-11.708,2.151-17.427c28.053-45.451,21.615-66.097,23.185-74.63
	c1.301-2.138,2.885-4.07,4.431-6.015c4.482-4.701,1.919-12.146,6.041-17.105c1.623-2.293,5.474-5.655,1.803-8.012
	c-4.045-2.254-8.913-2.859-12.79-5.564c1.133-5.307,3.323-10.24,5.461-15.173c2.254-4.908,1.571-10.974,5.706-14.916
	c5.242-5.564,6.389-13.641,11.863-19.025c5.215-4.89,11.37-30.052,19.604-44.812c19.752-35.165,13.861-37.788,55.824-98.717
	c4.598-4.521,4.856-11.309,7.703-16.796c0.951-2.19,25.614-42.738,26.135-43.446c3.864-4.985,0.747-11.451,2.267-17.028
	c15.468-59.461,28.314-45.776,23.005-67.778c-1.456-8.926,4.431-16.577,10.33-22.528c3.529-2.615,1.275-7.509,3.323-10.871
	c9.031-17.186,5.54-15.854,8.089-24.009c2.524-10.477,19.643-34.718,17.917-46.641c-0.902-8.102,4.366-15.122,3.967-23.12
	c2.489-33.668,21.208-23.66,19.269-50.221c-0.451-4.714,4.367-6.054,7.406-8.231c2.834-6.08,3.053-13.112,6.608-18.883
	c1.816-2.872,6.44-3.826,6.466-7.754c0.373-5.088,3.813-9.158,5.178-13.898c-2.877-5.927-2.997,1.975-9.544-43.485
	c-1.404-7.432-0.438-15.019-0.786-22.502c-0.09-7.767-2.46-15.302-2.499-23.056c0.811-17.964-11.051-28.356-1.288-54.124
	c2.776-6.216,0.263-24.346,1.623-37.057c1.713-10.382,1.868-20.918,3.452-31.3c0.31-6.95-12.084-43.295-5.062-70.212
	c-10.627-3.606-7.518-3.346-13.331-15.637c-1.778-4.856-7.033-6.711-10.639-9.905c-43.195-38.921-16.86-15.157-32.91-31.545
	c-13.414-18.567-45.175-48.962-52.978-65.472c-3.077-7.887-30.974-36.271-32.06-37.56c-37.617-49.289-34.997-39.245-72.402-73.162
	c-4.663-4.122-10.781-6.402-14.813-11.232c-0.052-0.477-0.142-1.455-0.18-1.932c3.465-7.071,7.136-14.053,10.408-21.227
	c-0.364-0.16-18.428-12.459-23.224-16.41c-4.405-3.787-5.796-10.227-10.833-13.306c-0.013-0.489-0.064-1.481-0.077-1.971
	c-1.404-0.052-2.808-0.09-4.186-0.142c-1.301-2.203-2.679-4.354-4.573-6.08c-3.259-3.001-3.323-7.793-5.191-11.58
	c-2.074-5.178-6.865-9.648-6.196-15.598c-0.052-3.181,2.718-5.255,4.418-7.612c11.64,1.703,8.866-2.922,14.04-5.255
	c4.122-0.399,8.565-0.747,12.352,1.301c2.937,1.456,6.415,0.85,9.403,2.241c2.602,1.275,5.539,1.365,8.347,1.906
	c3.838,1.713,7.522,3.748,11.386,5.423c5.768,7.396,9.76,27.721,17.196,35.653c2.151-1.533,4.366-3.001,6.621-4.392
	c12.29,4.517,101.506,83.52,116.672,97.416c39.796,34.435,49.243,30.619,56.262,60.809c25.574,12.924,20.306,19.313,25.826,27.126
	c2.421,1.185,5.178,1.468,7.599,2.692c4.843,3.684,8.025,10.395,14.671,11.064c6.943,1.224,14.993,3.001,18.806,9.622
	c3.207,3.066,8.115,3.658,11.657,6.337c4.595,6.586,4.78,13.871,12.185,13.035c2.589-1.365,1.803-4.534,0.812-6.685
	c-3.478-7.599-4.147-16.049-6.247-24.048c1.842-15.186,3.503-30.424,6.878-45.365c6.818-25.103,31.084-42.336,42.493-42.441
	c-0.206-0.605-0.631-1.816-0.837-2.422c18.129,0.235,11.242-3.662,32.485,0.708c4.353,3.642,31.3,11.251,39.286,34.327
	c0.405,1.291,10.19,18.284,11.399,27.101c0.502,7.819,4.688,14.954,4.328,22.889c0.103,9.081-6.208,16.448-9.158,24.563
	c0.451,5.461,3.748,10.498,7.419,14.465c2.885-4.727,5.165-9.828,6.054-15.328c0.451-5.062,5.513-7.432,7.522-11.721
	c2.782-5.577,5.693-11.219,10.292-15.573c4.019-3.542,3.465-9.686,7.11-13.447c7.303-7.715,6.505-19.772,13.537-27.68
	c3.027-2.602,6.814-4.225,9.609-7.136c2.744-2.847,5.062-6.105,8.192-8.591c2.473-1.906,2.525-6.183,5.874-6.956
	c3.194-1.198,6.749-1.468,9.815-3.053c1.339-1.468,0.592-3.748,1.005-5.539c0.762-11.617,19.068-30.694,30.488-48.032
	c7.474-10.202,17.965-30.077,42.016-62.252c3.359-4.486,24.803-21.599,27.886-26.276c2.357-3.8,6.569-5.603,10.24-7.831
	c3.993-1.816,3.942-6.827,4.869-10.511c0.464-5.564,2.872-10.781,2.885-16.397c-0.064-3.619,0.734-8.153,4.495-9.712
	C1362.294,292.93,1366.171,290.689,1370.563,291.191z"/>
<path d="M105.794,368.552c4.779-3.954,7.497-10.098,13.177-12.932c3.297,0.051,6.208,2.087,9.222,3.259
	c16.231,22.589,26.265,14.783,21.794,34.494c3.156,2.37,2.087,6.505,2.203,9.918c1.006,11.465-16.171,9.882-24.872,15.083
	c-3.375,2.447-7.857,0.863-11.412,2.769c-4.547,2.486-9.931,1.159-14.877,1.494c-4.006,9.699-10.111,18.471-13.048,28.621
	c-13.109,29.127-11.142,46.717-10.987,66.335c-1.649,7.548,0.554,15.663-3.169,22.747c-8.886,15.717,34.344,7.941,53.802,11.515
	c5.886,1.919,12.533,3.375,18.535,1.378c6.724-5.101,15.56-5.307,23.636-5.371c13.051-0.359,2.493,10.887,33.464-4.598
	c6.337-3.838,14.001-1.623,20.995-2.203c31.48-0.706,21.363,17.188,32.575,20.493c9.274,1.571,17.273-5.564,26.534-5.23
	c0.786-2.293,1.868-4.676,1.121-7.136c-1.726-6.273,0.245-12.855-1.468-19.128c-1.301-2.537-3.967-3.89-5.745-6.015
	c-2.641-8.308-2.177-17.157-3.607-25.697c0-4.856,1.288-9.66,3.194-14.117c1.945-4.547,1.34-9.596,2.37-14.336
	c2.603-27.057,27.133-47.261,51.393-50.324c1.868-0.76,3.529-2.241,5.667-2.125c7.174-0.103,14.426-0.541,21.575,0.296
	c3.272,1.662,6.762,2.731,10.472,2.628c-0.219,0.477-0.631,1.43-0.85,1.919c5.886,0.734,9.957,5.603,15.096,8.128
	c2.048,0.773,2.666,2.911,3.323,4.792c1.185,0.142,2.383,0.283,3.581,0.425c5.504,10.795,12.059,13.538,14.452,28.93
	c1.971,6.556-3.078,13.177-0.541,19.643c11.498,35.011-13.466,55.523-15.148,59.817c-2.009,4.792-3.388,9.854-4.56,14.929
	c2.125,0.064,4.263,0.129,6.415,0.18c-0.077,0.554-0.219,1.649-0.296,2.19c5.977,0.902,12.662-1.121,17.943,2.525
	c4.585,2.28,7.96-2.331,11.322-4.65c5.603-0.889,11.605,2.37,16.822-0.94c6.041-4.122,13.331-0.644,19.256,1.881
	c3.726,2.314,26.507,1.796,27.796,1.636c-0.219,0.631-0.657,1.881-0.863,2.499c3.761,0.245,8.037-0.966,11.386,1.275
	c3.194,2.28,7.419,0.567,10.91,1.984c7.69,3.12,27.785,2.023,34.146,0.953c27.237,3.584,10.689,4.387,33.322,2.963
	c5.456-11.594,0.916-18.706,3.594-31.995c2.598-41.937,3.985-36.212-6.711-72.196c-0.889-5.861-5.307-10.356-10.124-13.383
	c-3.516-0.696-7.136-0.077-10.639-0.657c-5.165-2.924-10.549-5.423-16.307-6.93c-5.989-1.133-11.232-4.431-16.977-6.311
	c-3.053-5.268-7.78-11.438-4.882-17.762c1.674-3.954,1.468-8.836,4.92-11.85c7.909-6.389,16.487-11.94,24.151-18.612
	c12.814-0.707,4.001-0.605,30.682,19.128c10.744,11.007,14.394,6.514,26.689,20.982c2.203,6.981,4.907,13.859,6.054,21.111
	c11.053,36.239,27.522,65.78,30.682,80.156c13.758,35.273,10.633,58.388,11.734,66.348c0.644,5.977-2.731,11.296-6.234,15.779
	c-19.189,13.74-39.188,18.534-44.309,18.883c-7.414,2.331-41.575,17.787-90.396,14.98c-4.547-0.528-9.171-1.881-13.731-0.799
	c-5.951,2.473-7.123,10.936-13.769,12.133c-4.173,0.477-8.9-2.46-12.778,0.026c-4.444,2.679-4.418,8.385-7.059,12.404
	c-2.28,3.285-0.811,7.741-3.117,10.974c-1.546,2.628-3.761,4.908-4.74,7.831c0.528,3.078,1.803,5.99,2.203,9.094
	c-0.386,5.706-3.104,11.322-1.778,17.08c0.721,3.529,0.927,7.213,0.129,10.768c-1.391,5.771-0.052,11.824-1.726,17.556
	c-0.927,4.792-2.937,9.287-4.16,14.001c-0.128,7.376,6.441,31.984,6.44,31.995c-1.37,87.537-2.641,78.445-34.533,81.302
	c-2.641,4.624-5.964,10.292-3.22,15.624c14.419,30.41,26.756,16.699,36.568,35.731c3.967,5.268,3.516,12.172,5.139,18.29
	c1.971,7.033-3.323,14.066-0.721,21.021c8.071,18.488,4.468,19.555,19.617,61.427c12.979,27.029,24.577,92.251,25.066,93.539
	c17.815,47.936,4.795,33.385,7.574,46.499c0.966,4.482,2.37,8.875,3.555,13.331c0.605,3.233,3.813,5.384,3.877,8.785
	c0.747,5.461-1.443,11.464,1.674,16.474c2.911,4.624,6.453,9.107,7.149,14.735c1.235,9.268,17.864,94.71,18.071,95.252
	c0.914,8.347-0.18,16.809,0.592,25.207c0.554,4.83-2.512,9.338-1.468,14.207c2.216,5.539,6.556,10.562,6.633,16.77
	c-2.009,10.665-1.352,21.717,1.172,32.253c-9.159,10.863,1.743,26.499-10.549,32.923c2.203,6.453,5.101,15.251,13.022,16.114
	c8.63,1.108,16.41,5.217,24.731,7.458c2.344,3.748,4.56,7.587,8.746,9.66c-0.399,0.592-1.211,1.778-1.623,2.37
	c-6.518-2.692-13.602-3.001-20.48-4.122c24.054,35.848,44.919,37.059,48.47,53.197c0.163,14.642-43.096,15.697-57.37,15.238
	c-19.589-0.646-19.584-10.818-27.487-13.692c-18.619-6.98-39.982-7.729-50.582-17.221c2.009-9.016-0.399-18.381,1.752-27.358
	c1.133-5.436-0.116-10.858-0.773-16.217c3.066-6.002,4.199-12.662,5.049-19.269c-1.546-2.808-4.315-4.985-4.933-8.231
	c-4.573-24.706-9.222-17.447-9.351-34.546c-0.103-6.505-4.804-11.515-7.2-17.234c-1.623-7.909,0.258-15.933,0.773-23.816
	c-0.297-1.288-15.706-60.33-17.092-78.417c-1.494-7.947-1.391-16.268-4.482-23.829c-0.927-3.735,0.399-7.484,1.185-11.09
	c-6.84-7.033-2.537-17.775-6.685-25.89c-1.881-2.009-4.328-3.439-5.886-5.732c-2.641-5.771-3.027-12.198-4.895-18.187
	c-1.932-3.568-4.817-6.492-6.801-9.995c-4.186-6.711-5.938-14.864-11.528-20.686c-8.437-9.596-13.641-21.433-18.432-33.129
	c-0.94-1.29-42.428-65.137-67.662-93.461c-12.139-4.549-25.867,18.735-31.699,30.282c-10.034,13.215-19.115,27.32-25.723,42.557
	c-3.735,6.646-9.081,12.533-10.936,20.094c-5.196,18.053-5.737,7.931-15.663,47.388c-3.826,8.617-9.364,16.59-11.464,25.916
	c-0.592,5.436-6.543,7.278-9.21,11.399c-0.764,22.528-10.582,25.414-7.084,39.749c1.095,4.74-1.855,9.197-1.417,13.963
	c0.193,3.388-0.09,6.775-1.043,10.06c-2.009,6.621-0.283,13.641-1.765,20.338c-2.679,10.807-1.662,22.155-4.16,32.987
	c-0.155,2.074-2.344,2.267-3.864,2.937c-1.687,12.301-3.516,24.602-5.423,36.864c0.026,6.994,3.903,13.306,4.238,20.3
	c1.739,7.445,0.052,15.173,1.674,22.631c1.237,5.216-0.438,10.51-1.314,15.663c-9.334,19.32-9.029,25.135-18.007,30.282
	c3.658,6.788,7.497,13.705,8.63,21.472c0.593,4.766,3.89,9.957,1.005,14.542c-3.838,6.878-8.566,13.28-11.644,20.57
	c-1.713,4.212-3.465,8.411-5.642,12.417c-9.232,16.15-0.562,30.188-3.246,40.445c-2.1,11.348-5.191,23.34-12.971,32.201
	c-5.667,4.289-10.304,11.386-18.149,11.489c-5.327,0.192-30.267,9.125-35.306-26.482c-8.122-30.081,8.154-43.299,6.917-76.974
	c-6.891,2.847-11.837,8.463-18.02,12.365c-0.193-0.67-0.593-2.009-0.786-2.679c5.165-5.912,12.095-9.892,19.05-13.344
	c-0.103-4.122-0.889-8.166-1.584-12.211c7.757-8.038,4.276,3.512,5.384-23.945c3.516,0.335,6.633,2.009,9.867,3.297
	c0.09-7.587,4.817-16.745-1.649-22.902c-3.31-6.569-5.886-13.859-5.822-21.292c0.09-4.057-3.053-7.432-2.537-11.515
	c0.631-6.028,3.671-11.799,2.525-17.981c-1.829-8.939-4.585-17.93-3.684-27.152c3.998-21.908-4.15-33.181,10.24-96.617
	c2.473-11.219,1.404-23.12,6.105-33.786c1.005-5.719-0.412-11.605,0.721-17.286c1.662-3.761,4.521-6.762,6.865-10.073
	c-0.116-4.792-1.726-9.66-0.477-14.426c1.7-4.56,7.703-6.595,7.381-12.069c1.249-5.564-2.46-10.188-3.516-15.341
	c1.597-10.42,3.336-20.828,6.208-30.965c0,0,1.544-29.666,11.026-73.806c2.044-12.522,13.713-53.093,13.55-62.638
	c2.009-8.514,4.122-17.08,4.895-25.826c0.386-7.999-0.889-16.152,1.378-23.958c0.773-4.676-0.915-11.94,4.869-13.718
	c3.439-1.533,6.453-3.826,9.119-6.466c-0.786-5.127,1.391-9.57,3.632-13.937c-1.275-5.204,1.172-10.034,4.238-14.066
	c2.924-6.221,7.226-12.031,8.115-19.012c1.159-5.152,0.618-10.511,2.074-15.611c-4.482-4.598-2.267-11.824-1.7-17.531
	c1.868-4.817-2.512-8.81-2.177-13.55c-0.554-5.384,2.872-10.098,2.692-15.418c-0.026-5.255-0.193-10.549,1.082-15.689
	c1.984-7.922,1.069-16.152,2.666-24.125c-2.048-5.191-5.5-9.802-6.595-15.354c-1.365-7.548-7.187-13.125-9.39-20.338
	c-2.133-5.159-4.586-22.348-2.241-35.473c-0.077-4.199-1.481-8.295-1.455-12.507c0.76-3.066,3.413-5.745,2.975-9.004
	c-1.893-5.204-5.436-9.751-6.569-15.251c-8.938-43.517-9.276-34.773-64.648-49.268c-4.507-1.095-63.622-12.312-104.745-41.746
	c-17.363-10.755-11.684-19.7-9.493-34.378c1.063-7.804,11.754-45.751,18.355-56.417c4.083-7.806,8.604-15.457,11.322-23.855
	c2.216-3.322,22.279-38.398,24.963-45.546c10.475-20.494-4.241-8.839,34.108-48.238C94.717,374.438,101.647,373.189,105.794,368.552
	z"/>
<path d="M1820.404,469.226c20.31-2.25,32.287-0.918,54.485,12.03c4.199,1.159,8.694-0.013,12.945,1.018
	c4.289,3.091,6.582,8.05,10.523,11.515c5.423,6.801,12.597,11.837,19.578,16.912c1.055,19.44-2.873,13.128-3.632,21.639
	c-0.116,3.607,1.726,7.29,0.322,10.82c-1.404,1.726-3.13,3.13-4.792,4.56c3.001,3.993,7.87,6.067,10.704,10.227
	c2.924,4.753,4.469,10.549,9.068,14.117c3.091,3.091,8.269,3.452,10.678,7.303c2.048,3.286,9.946,11.993,15.482,13.744
	c3.104,3.491,6.015,7.406,10.317,9.532c3.272,0.605,7.007-0.464,9.944,1.559c3.465,2.422,8.128,0.271,11.773,2.37
	c6.905,3.932,21.971-4.332,29.097,27.667c0.721,3.8,4.985,4.598,7.844,6.286c5.217,2.19,7.819,8.153,13.473,9.635
	c7.896,2.434,15.302,6.827,23.7,7.239c16.396,7.897,31.708,23.562,49.01,25.555c-0.142,0.515-0.412,1.571-0.554,2.087
	c7.908,1.262,12.378,8.785,17.788,13.911c1.636,4.882,5.874,8.128,8.759,12.237c4.718,6.161,15.933,33.962,17.092,43.588
	c2.538,10.15,8.398,19.179,10.408,29.496c0.734,3.31,2.537,6.273,4.779,8.81c1.198-2.898,1.469-6.556,4.276-8.488
	c7.829-1.866,8.63,5.706,14.387,17.015c5.771-1.662,7.651-8.862,13.473-10.923c1.777,1.082,3.619,2.099,5.487,3.143
	c0.868,6.846-8.414,20.122-6.208,27.5c8.917,36.695,0.835,28.472-24.254,42.416c-21.451,29.502-38.927,5.593-55.541-14.053
	c-2.383-5.886-5.693-11.283-9.39-16.423c-3.967-4.817-2.332-11.515-4.92-16.899c-2.782-5.706-4.688-12.03-9.016-16.809
	c-5.036-6.299-6.299-14.658-11.155-21.073c-6.402-7.677-12.868-15.701-21.614-20.841c-6.041-3.194-8.501-11.219-15.482-12.868
	c-5.345-0.258-10.807,0.026-15.83-2.125c-8.128-1.984-13.241-12.288-22.386-10.253c-5.191-0.76-11.296-1.778-15.302,2.473
	c-1.932,6.801,0.335,15.624-6.337,20.351c-4.328,3.027-5.01,8.694-2.396,13.1c0.835,6.865,2.949,40.575,8.501,45.674
	c4.38,5.809,11.309,11.348,10.202,19.45c0.451,11.902,3.813,24.975-2.731,35.898c-3.04,7.239-8.475,13.499-9.596,21.459
	c26.033,24.979,52.526,103.861,19.128,142.781c-2.241,2.576-3.813,5.603-5.68,8.437c-3.246,4.083-7.406,7.793-8.836,12.996
	c-5.461,25.993-4.817,53.326-14.401,78.391c-2.164,6.08-5.977,11.67-6.569,18.226c4.405,0.167,8.849-0.103,13.125-1.34
	c24.409-6.532,39.459-2.451,46.37-2.525c64.749-0.057,40.648,0.75,55.618-3.555c5.624,0.372,12.146,6.841,33.18-1.855
	c3.336,1.584,6.505,4.109,10.382,4.109c7.02-0.064,15.045,1.339,20.854-3.632c8.79-8.454,14.181-10.115,13.963-33.747
	c-0.716-19.318,36.171-28.203,59.315,9.016c3.336,5.152,9.042,8.347,11.85,13.911c11.305,19.911,25.617,25.161,40.265,35.641
	c5.436,3.516,7.252,10.086,10.42,15.392c12.229,24.119,4.271,12.613,11.76,30.733c1.035,26.034,6.161,17.924-6.737,44.296
	c-1.262,3.401-5.371,3.413-8.347,4.135c-30.852,4.925-25.734-12.456-53.235-28.337c2.28,4.56,6.891,7.265,9.712,11.464
	c-0.734,0.49-2.19,1.456-2.924,1.932c-24.008-16.045-13.319-6.712-24.306-18.96c-1.469,2.061-2.988,4.083-4.521,6.08
	c-5.333-4.624-4.302-12.507-7.445-18.419c-6.84-0.824-13.048,2.975-19.862,2.383c-0.773-4.959-0.013-11.683-4.869-14.697
	c-12.185-4.74-25.439-2.602-38.165-3.207c-3.941-0.412-7.303,1.752-10.279,4.006c-6.891-2.563-14.246-0.605-21.15,0.683
	c-6.711,4.598-14.014,8.604-22.077,10.124c-47.651,8.752-37.05,9.029-48.251,12.353c-9.197,2.821-18.883,3.684-28.015,6.736
	c-20.763,6.724-41.205,16.165-63.398,16.642c-28.377,3.542-32.85-1.54-44.708-3.001c-5.922,14.811-8.34,55.768-12.533,69.323
	c-7.402,18.146-3.215,13.068-13.55,31.442c-4.461,8.183-25.2,29.958-41.166,8.823c-8.768-14.312-1.393-43.533-7.999-60.294
	c-3.632-5.204-3.478-12.069-7.329-17.093c-3.285-2.769-7.715-4.186-10.124-7.921c-2.422-3.259-1.481-7.458-1.713-11.193
	c0.283-5.242-4.148-8.875-6.492-13.087c-0.399-5.513,6.08-4.701,9.699-5.68c2.307-3.229-5.771-10.416-8.012-18.857
	c-1.43-5.951-4.985-11.103-8.359-16.101c-1.7-2.692-5.101-2.666-7.651-3.967c-4.611-7.986-10.356-15.276-16.461-22.167
	c-3.349-2.177-8.321-1.056-11.283-4.135c-41.915-41.602-38.165-47.477-69.194-68.692c-9.944-6.634-17.556-15.933-26.212-24.035
	c-36.219-28.976-30.789-27.345-44.09-47.375c-8.84-13.091-9.907-14.009-8.875-30.836c4.748-23.799,20.833-31.857,44.953-40.02
	c60.174-21.189,92.495-28.685,92.495-28.685c5.281-1.455,8.192-6.981,13.628-8.14c2.828-0.617,73.874-10.002,76.085-10.343
	c4.611-1.211,8.707,2.718,13.332,2.035c15.519-6.035,15.264-7.653-0.155-36.864c-0.54-0.357-35.27-21.986-36.748-22.541
	c-3.671-1.301-5.075-5.242-7.677-7.78c-2.949-1.34-6.53-1.507-8.784-4.057c-7.377-7.553-14.71-4.965-17.118-24.074
	c0.245-3.555,1.932-6.84,2.409-10.356c-0.293-4.85-7.661-51.088-7.651-51.393c0.493-17.784-25.348-93.412-27.964-107.385
	c-4.019-10.369-3.555-21.845-7.78-32.15c-10.48-21.698-10.303-18.394-16.603-19.205c-0.773-1.456-1.507-2.898-2.241-4.328
	c-4.276-0.592-7.007-4.148-10.369-6.44c-5.049-4.212-10.91-7.226-16.642-10.343c-9.17-11.43-22.982-15.806-34.675-33.631
	c-4.574-6.895-24.419-21.377-20.841-35.422c3.046-16.098-7.393-19.181,21.639-32.755c5.99-0.167,11.142-3.259,16.59-5.345
	c12.522-1.949,4.027,3.413,27.101-5.049c8.166-1.198,16.552,0.696,24.679-1.121c4.508-1.224,8.978,0.76,13.525,0.721
	c4.315,0.283,8.913-0.67,12.984,1.275c4.431,2.203,9.635,0.592,14.169,2.537c4.315,1.185,8.347,3.31,12.803,4.006
	c4.07,0.567,7.638,2.885,11.709,3.632c3.439-1.352,6.298-3.954,9.982-4.792c0.129-1.224,0.283-2.434,0.464-3.632
	C1811.877,472.987,1815.973,470.669,1820.404,469.226 M1764.528,1059.169c1.921,11.145,37.766,66.315,43.06,67.546
	c4.225,0.786,7.175,4.083,9.21,7.69c3.552,5.516-2.858,8.774,15.457,26.985c5.462,5.738,4.148,10.128,11.541,15.521
	c3.246,3.078,8.05,0.94,11.979,2.151c6.105,3.259,13.28,3.182,19.9,4.869c-2.732-27.719-20.587-101.434-38.513-122.726
	c-4.985-1.662-10.498-0.399-15.676-0.902C1802.497,1060.133,1808.65,1056.807,1764.528,1059.169z"/>
</svg>
